<svg width="38" height="38" viewBox="0 0 38 38" fill="none" xmlns="http://www.w3.org/2000/svg">
<rect x="0.5" y="0.5" width="37" height="37" rx="18.5" fill="white"/>
<rect x="0.5" y="0.5" width="37" height="37" rx="18.5" stroke="#94A3B8"/>
<path d="M23.6667 20.3333C24.66 19.36 25.6667 18.1933 25.6667 16.6667C25.6667 15.6942 25.2804 14.7616 24.5927 14.0739C23.9051 13.3863 22.9725 13 22 13C20.8267 13 20 13.3333 19 14.3333C18 13.3333 17.1733 13 16 13C15.0275 13 14.0949 13.3863 13.4073 14.0739C12.7197 14.7616 12.3333 15.6942 12.3333 16.6667C12.3333 18.2 13.3333 19.3667 14.3333 20.3333L19 25L23.6667 20.3333Z" stroke="#94A3B8" stroke-linecap="round" stroke-linejoin="round"/>
</svg>
