<svg width="132" height="24" viewBox="0 0 132 24" fill="none" xmlns="http://www.w3.org/2000/svg">
<path d="M11.9719 16.8835L17.9443 20.4882L16.3593 13.6943L21.6359 9.12325L14.6875 8.53374L11.9719 2.12646L9.25626 8.53374L2.3078 9.12325L7.58438 13.6943L5.99947 20.4882L11.9719 16.8835Z" fill="#EAB308"/>
<path d="M39.0312 16.8835L45.0036 20.4882L43.4187 13.6943L48.6953 9.12325L41.7469 8.53374L39.0312 2.12646L36.3156 8.53374L29.3672 9.12325L34.6438 13.6943L33.0589 20.4882L39.0312 16.8835Z" fill="#EAB308"/>
<path d="M66.0906 16.8835L72.063 20.4882L70.4781 13.6943L75.7547 9.12325L68.8062 8.53374L66.0906 2.12646L63.375 8.53374L56.4265 9.12325L61.7031 13.6943L60.1182 20.4882L66.0906 16.8835Z" fill="#EAB308"/>
<path d="M102.814 9.12325L95.8656 8.52407L93.15 2.12646L90.4344 8.53374L83.4859 9.12325L88.7625 13.6943L87.1776 20.4882L93.15 16.8835L99.1224 20.4882L97.5471 13.6943L102.814 9.12325ZM93.15 15.0763V6.08873L94.8025 9.99301L99.0354 10.3602L95.8269 13.1435L96.7933 17.2797L93.15 15.0763Z" fill="#EAB308"/>
<path d="M129.873 9.12325L122.925 8.52407L120.209 2.12646L117.494 8.53374L110.545 9.12325L115.822 13.6943L114.237 20.4882L120.209 16.8835L126.182 20.4882L124.607 13.6943L129.873 9.12325ZM120.209 15.0763L116.576 17.2701L117.542 13.1338L114.334 10.3506L118.566 9.98335L120.209 6.08873L121.862 9.99301L126.095 10.3602L122.886 13.1435L123.853 17.2797L120.209 15.0763Z" fill="#EAB308"/>
</svg>
